<?xml version="1.0" encoding="utf-8"?>
<!-- Generator: Adobe Illustrator 26.0.3, SVG Export Plug-In . SVG Version: 6.00 Build 0)  -->
<svg version="1.0" id="katman_1" xmlns="http://www.w3.org/2000/svg" xmlns:xlink="http://www.w3.org/1999/xlink" x="0px" y="0px"
	 viewBox="0 0 600 450" style="enable-background:new 0 0 600 450;" xml:space="preserve">
<style type="text/css">
	.st0{fill:#19AE88;}
</style>
<g>
	<path class="st0" d="M364.7,220.7c-2.4,0-4.7,1-6.3,2.6c-1.7,1.7-2.6,4-2.6,6.4c0,2.4,1,4.7,2.6,6.3c1.7,1.7,4,2.6,6.3,2.6
		s4.7-1,6.3-2.6c1.7-1.7,2.6-4,2.6-6.3c0-2.4-1-4.7-2.6-6.4C369.4,221.6,367,220.7,364.7,220.7z"/>
	<path class="st0" d="M423.9,222.2h-12.2c-9.2-20.7-28-38.3-52.9-49.3v-17.3c0-4.4-3.2-8.2-7.6-8.9c-1.3-0.2-28.9-4.1-44.9,13.9
		c-2.8-0.1-5.6-0.2-8.3-0.2c-31.6,0-61.4,9.2-83.9,25.9c-9.4,7-17.1,14.9-22.9,23.5c-0.5-0.4-0.9-0.8-1.4-1.3
		c-3.3-3.7-4.3-8.7-3-15.2c1-4.9-2.2-9.6-7.1-10.6c-4.9-1-9.6,2.2-10.6,7.1c-3.8,18.9,5,30.5,13.5,36.2c-3.2,8.3-4.8,17-4.8,25.9
		c0,8.6,1.1,15.5,3.4,21.8c12.8,34.4,41.3,77.6,42.5,79.4c1.7,2.5,4.5,4,7.5,4h34.4c2.7,0,5.3-1.3,7-3.4c1.7-2.2,2.3-5,1.7-7.6
		l-1.1-4.6c15.6,2.5,32,2.6,47.7,0.2l-1,4.4c-0.6,2.7,0,5.5,1.7,7.6c1.7,2.2,4.3,3.4,7,3.4h35.8c3.3,0,6.3-1.8,7.8-4.6l35.8-64.2
		h15.6c5,0,9-4,9-9v-48.1C432.9,226.2,428.9,222.2,423.9,222.2z M414.9,270.4H403c-3.3,0-6.3,1.8-7.8,4.6l-35.8,64.2h-19.2l1.6-6.9
		c0.7-3-0.2-6.2-2.4-8.4c-2.2-2.2-5.4-3.1-8.5-2.3c-10.6,2.6-21.7,4-32.9,4c-11.8,0-23.3-1.4-34.3-4.3c-3-0.8-6.3,0.1-8.5,2.3
		c-2.2,2.2-3.2,5.4-2.5,8.5l1.7,7.3h-18.2c-7.3-11.4-28.1-45.1-38-71.7c-1.6-4.2-2.3-9.2-2.3-15.6c0-40.6,45.8-73.5,102.1-73.5
		c3.8,0,7.7,0.2,11.7,0.5c3.3,0.3,6.4-1.3,8.2-4c5.4-8.2,15.8-10.2,23-10.6v14.6c0,3.7,2.3,7,5.7,8.4c25.2,9.9,43.6,27,50.5,46.9
		c1.3,3.6,4.7,6,8.5,6h9.3L414.9,270.4L414.9,270.4z"/>
	<path class="st0" d="M283.2,156c17.2,0,31.2-14,31.2-31.2s-14-31.2-31.2-31.2c-17.2,0-31.2,14-31.2,31.2S266,156,283.2,156z
		 M283.2,111.6c7.3,0,13.2,5.9,13.2,13.2s-5.9,13.2-13.2,13.2c-7.3,0-13.2-5.9-13.2-13.2S275.9,111.6,283.2,111.6z"/>
</g>
</svg>
